Coordinates
version=1
nRows=16
nColumns=22
inDegrees=yes

Units are S.I. units (second, meters, Newtons, ...)
If the header above contains a line with 'inDegrees', this indicates whether rotational values are in degrees (yes) or radians (no).

endheader
time	pelvis_tilt	pelvis_list	pelvis_rotation	pelvis_tx	pelvis_ty	pelvis_tz	hip_flexion_r	hip_adduction_r	hip_rotation_r	knee_angle_r	ankle_angle_r	subtalar_angle_r	hip_flexion_l	hip_adduction_l	hip_rotation_l	knee_angle_l	ankle_angle_l	subtalar_angle_l	lumbar_extension	lumbar_bending	lumbar_rotation
      4.29000000	      3.28766257	      8.24160325	    134.05053386	      0.62320186	      0.98999426	     -0.44795102	    -12.08336423	     10.08050898	    -13.69764858	    -11.49342199	     17.27815808	      4.05235205	     22.69992300	     -7.65171881	    -25.19629670	    -18.87990703	      8.43070323	     -4.27300153	    -18.45022507	      7.83817288	     10.07609253
      4.30000000	      3.12361719	      8.24083167	    134.33396740	      0.61762911	      0.98930518	     -0.45297964	    -12.46144825	      9.94211253	    -13.78276515	    -11.87701649	     17.38884910	      4.43409723	     22.51993715	     -7.57482701	    -25.23542054	    -19.43024832	      7.77301185	     -5.13778923	    -18.32762400	      7.52071768	      9.93975855
      4.31000000	      2.91378022	      8.20371532	    134.64015995	      0.61192417	      0.98880880	     -0.45798754	    -12.81022864	      9.73891459	    -13.86221643	    -12.33048629	     17.44052323	      4.84288723	     22.34803527	     -7.43464216	    -25.14649041	    -20.07510551	      7.06263558	     -5.97414665	    -18.20923129	      7.14326586	      9.75200032
      4.32000000	      2.65167728	      8.11977192	    134.99026849	      0.60605183	      0.98850747	     -0.46294635	    -13.12446305	      9.46308271	    -13.96145511	    -12.85632887	     17.43971494	      5.26861379	     22.18809539	     -7.20240562	    -24.91278189	    -20.78098998	      6.39825979	     -6.72156747	    -18.09000661	      6.69997560	      9.50637205
      4.33000000	      2.35958871	      8.01979218	    135.36205732	      0.60002995	      0.98843037	     -0.46783966	    -13.41061729	      9.14986893	    -14.03004270	    -13.45533337	     17.34011710	      5.77601039	     22.02464416	     -6.91062798	    -24.51984073	    -21.51034473	      5.83159496	     -7.46236838	    -17.98608396	      6.23315565	      9.26134909
      4.34000000	      2.03444996	      7.88168721	    135.76275677	      0.59380838	      0.98854433	     -0.47265467	    -13.64754768	      8.77613457	    -14.10087793	    -14.14574384	     17.16007056	      6.33546491	     21.85154612	     -6.52291976	    -23.97152579	    -22.21359747	      5.42818188	     -8.11381224	    -17.87480515	      5.72945403	      8.99803588
      4.35000000	      1.69325200	      7.72751478	    136.18982712	      0.58739430	      0.98882687	     -0.47736961	    -13.83138629	      8.36724741	    -14.17724755	    -14.94241792	     16.93230498	      6.95449413	     21.66145317	     -6.07307691	    -23.32719016	    -22.88273128	      5.18388948	     -8.67427547	    -17.76478367	      5.22247615	      8.72440148
      4.36000000	      1.35712212	      7.56208475	    136.60879329	      0.58080546	      0.98926854	     -0.48198711	    -13.94555097	      7.93245136	    -14.18782364	    -15.85364421	     16.58538271	      7.71004535	     21.43741611	     -5.58835563	    -22.66721679	    -23.47366439	      5.05889027	     -9.20139607	    -17.64382793	      4.73080123	      8.48254311
      4.37000000	      1.03746037	      7.38749375	    137.01561469	      0.57406716	      0.98982809	     -0.48647959	    -13.96253174	      7.47359446	    -14.14813123	    -16.91353003	     16.14820586	      8.55981925	     21.17299956	     -5.08162405	    -22.03278608	    -23.96266055	      5.04247140	     -9.64814812	    -17.50728765	      4.26337035	      8.28723996
      4.38000000	      0.74435516	      7.20588742	    137.39582155	      0.56721526	      0.99047285	     -0.49080053	    -13.85538469	      6.98780242	    -14.05809753	    -18.15489791	     15.65417383	      9.48252186	     20.86346898	     -4.56260421	    -21.44661548	    -24.33002862	      5.09019111	    -10.01953113	    -17.35476138	      3.83195992	      8.16978235
      4.39000000	      0.49502198	      7.02419101	    137.72193822	      0.56029016	      0.99118429	     -0.49501011	    -13.62610044	      6.49541711	    -13.83396612	    -19.55077092	     15.01604559	     10.55987068	     20.50871817	     -4.07377592	    -21.00442841	    -24.57757198	      5.22850797	    -10.38434506	    -17.17266619	      3.44571768	      8.10916090
      4.40000000	      0.27967366	      6.81524135	    137.99340591	      0.55335177	      0.99191500	     -0.49905559	    -13.22857985	      5.95559566	    -13.55619910	    -21.15637927	     14.32371987	     11.64343959	     20.12278621	     -3.57883888	    -20.67240369	    -24.69776132	      5.35615366	    -10.69499328	    -16.95733589	      3.07039008	      8.15675401
      4.41000000	      0.11472496	      6.63333384	    138.22388744	      0.54641118	      0.99267697	     -0.50297309	    -12.72524207	      5.44709672	    -13.15112402	    -22.88940910	     13.45209748	     12.89394200	     19.69812933	     -3.14052861	    -20.44617701	    -24.72574750	      5.59019023	    -11.03289820	    -16.73102997	      2.76793287	      8.23338106
      4.42000000	     -0.01895619	      6.42018971	    138.39979300	      0.53953837	      0.99340542	     -0.50675524	    -12.05917091	      4.89943942	    -12.67962414	    -24.80466392	     12.52663042	     14.07797570	     19.26095106	     -2.69972733	    -20.31854832	    -24.65263233	      5.83002437	    -11.31992344	    -16.47168149	      2.46382751	      8.37436064
      4.43000000	     -0.12580891	      6.20919990	    138.55768795	      0.53277051	      0.99410732	     -0.51040147	    -11.27863343	      4.35522631	    -12.17169797	    -26.85176429	     11.48279560	     15.22863021	     18.82215519	     -2.28541322	    -20.25509120	    -24.53967993	      6.09187388	    -11.58022601	    -16.21284511	      2.18070610	      8.52990386
      4.44000000	     -0.20966476	      5.99213768	    138.70965070	      0.52613722	      0.99474966	     -0.51390245	    -10.38304137	      3.81228250	    -11.64917567	    -29.02346640	     10.37096504	     16.23290286	     18.39199980	     -1.88528822	    -20.22885287	    -24.38961186	      6.37603657	    -11.78609725	    -15.95359521	      1.91024431	      8.67282902
